<svg width="224" height="48" viewBox="0 0 224 48" fill="none" xmlns="http://www.w3.org/2000/svg">
<path fill-rule="evenodd" clip-rule="evenodd" d="M28.9497 2.0797C29.3402 1.68917 29.9734 1.68917 30.3639 2.0797L31.7781 3.49391C32.1687 3.88444 32.1687 4.5176 31.7782 4.90812L26.8284 9.85787L38.1421 21.1716L43.0919 16.2218C43.4824 15.8313 44.1155 15.8313 44.5061 16.2218L45.9203 17.636C46.3108 18.0266 46.3108 18.6597 45.9203 19.0503L40.9705 24L45.9203 28.9498C46.3108 29.3403 46.3108 29.9734 45.9203 30.364L44.5061 31.7782C44.1155 32.1687 43.4824 32.1687 43.0919 31.7782L38.1421 26.8284L26.8284 38.1421L31.7782 43.0919C32.1687 43.4824 32.1687 44.1156 31.7782 44.5061L30.3639 45.9203C29.9734 46.3108 29.3403 46.3108 28.9497 45.9203L24 40.9706L19.0502 45.9203C18.6597 46.3108 18.0265 46.3108 17.636 45.9203L16.2218 44.5061C15.8313 44.1156 15.8313 43.4824 16.2218 43.0919L21.1716 38.1421L9.85784 26.8284L4.90809 31.7782C4.51757 32.1687 3.8844 32.1687 3.49388 31.7782L2.07967 30.364C1.68914 29.9734 1.68914 29.3403 2.07967 28.9498L7.02942 24L2.07967 19.0503C1.68915 18.6597 1.68915 18.0266 2.07967 17.636L3.49388 16.2218C3.88441 15.8313 4.51757 15.8313 4.9081 16.2218L9.85784 21.1716L21.1715 9.85787L16.2218 4.90812C15.8313 4.5176 15.8313 3.88443 16.2218 3.49391L17.636 2.0797C18.0265 1.68917 18.6597 1.68917 19.0502 2.0797L24 7.02945L28.9497 2.0797ZM18.3431 18.3432C21.4673 15.219 26.5326 15.219 29.6568 18.3432V18.3432C32.781 21.4673 32.781 26.5327 29.6568 29.6569V29.6569C26.5326 32.7811 21.4673 32.7811 18.3431 29.6569V29.6569C15.2189 26.5327 15.2189 21.4673 18.3431 18.3432V18.3432Z" fill="black"/>
<circle cx="24" cy="24" r="8.5" fill="white"/>
<circle cx="24" cy="24" r="2.25" fill="black"/>
<path fill-rule="evenodd" clip-rule="evenodd" d="M59 14.402C58.4477 14.402 58 14.8497 58 15.402V32.6C58 33.1523 58.4477 33.6 59 33.6H65.74C68.1798 33.6 70.0262 33.1201 71.2686 32.1596C72.5264 31.1872 73.116 29.761 73.116 27.992C73.116 26.7976 72.844 25.833 72.2882 25.0764C71.8694 24.5063 71.3038 24.0739 70.6137 23.75C71.2079 23.4066 71.6879 22.9622 72.0417 22.3987C72.5226 21.6329 72.752 20.6764 72.752 19.516C72.752 17.8862 72.1982 16.579 70.9594 15.6951C69.7428 14.8271 67.9118 14.402 65.428 14.402H59ZM61.988 17.818H65.532C66.7605 17.818 67.5611 18.0063 68.049 18.3417C68.5089 18.6578 68.738 19.139 68.738 19.88C68.738 20.6778 68.4689 21.1964 67.9832 21.5327C67.4736 21.8855 66.6771 22.072 65.558 22.072H61.988V17.818ZM61.988 25.488H65.35C66.6731 25.488 67.583 25.6706 68.155 26.0291C68.694 26.367 68.972 26.8867 68.972 27.706C68.972 28.5028 68.7337 29.0487 68.212 29.4152C67.663 29.8009 66.7467 30.028 65.298 30.028H61.988V25.488Z" fill="black"/>
<path fill-rule="evenodd" clip-rule="evenodd" d="M87.125 29.39C86.8034 29.39 86.5109 29.5555 86.2736 29.7726C86.156 29.8803 86.0279 29.976 85.8888 30.0601C85.3957 30.3583 84.7382 30.526 83.869 30.526C82.6945 30.526 81.785 30.2055 81.1377 29.6282C80.5606 29.1135 80.163 28.3689 79.9871 27.39H90.479C91.0313 27.39 91.479 26.9423 91.479 26.39V25.474C91.479 23.4929 90.9434 21.5655 89.6862 20.0623C88.4185 18.5466 86.4999 17.63 83.843 17.63C80.5923 17.63 78.1828 19.0088 76.8698 21.4707L76.8684 21.4734C76.2167 22.7226 75.895 24.1022 75.895 25.76V26.124C75.895 28.4939 76.5279 30.4714 77.8519 31.8574C79.1784 33.2461 81.1535 33.994 83.739 33.994C85.7505 33.994 87.4062 33.5409 88.6768 32.6722C89.4493 32.1439 90.0698 31.4685 90.5384 30.6649C90.8844 30.0714 90.4029 29.39 89.7159 29.39H87.125ZM86.3813 21.8978C85.8153 21.3288 84.9963 20.994 83.869 20.994C82.7507 20.994 81.8716 21.3122 81.2279 21.8827C80.6579 22.388 80.248 23.1129 80.032 24.052H87.3674C87.2203 23.1313 86.8874 22.4064 86.3813 21.8978Z" fill="black"/>
<path d="M94.1856 17.99C93.6123 17.99 93.2251 18.5753 93.4493 19.1029L99.3046 32.88L99.3093 32.88L98.5043 34.9348C98.3542 35.3179 97.9847 35.57 97.5732 35.57H94.8701C94.3178 35.57 93.8701 36.0177 93.8701 36.57V38.19C93.8701 38.7423 94.3178 39.19 94.8701 39.19L97.7248 39.19C99.544 39.19 101.184 38.0945 101.881 36.4141L104.137 30.9766L104.134 30.9776L109.059 19.0963C109.277 18.5695 108.89 17.99 108.32 17.99H105.961C105.508 17.99 105.101 18.2681 104.937 18.6905L101.33 27.9438L97.6153 18.6806C97.448 18.2634 97.0438 17.99 96.5943 17.99H94.1856Z" fill="black"/>
<path d="M126.788 25.81C126.788 30.283 123.162 33.9091 118.689 33.9091C114.216 33.9091 110.59 30.283 110.59 25.81C110.59 21.337 114.216 17.7109 118.689 17.7109C123.162 17.7109 126.788 21.337 126.788 25.81Z" fill="black"/>
<path d="M123.089 25.81C123.089 28.2401 121.119 30.21 118.689 30.21C116.259 30.21 114.289 28.2401 114.289 25.81C114.289 23.38 116.259 21.41 118.689 21.41C121.119 21.41 123.089 23.38 123.089 25.81Z" fill="white"/>
<path d="M134.392 32.604C134.392 33.1563 133.944 33.604 133.392 33.604H131.3C130.748 33.604 130.3 33.1563 130.3 32.604V18.9975C130.3 18.4439 130.75 17.9956 131.303 17.9975L132 18H133L133.383 17.9972C133.938 17.9932 134.39 18.4421 134.39 18.9972V19.6533C134.71 19.2461 135.084 18.8902 135.513 18.5949C136.42 17.9702 137.554 17.63 138.898 17.63C140.782 17.63 142.264 18.2564 143.27 19.4031C144.271 20.5435 144.766 22.1577 144.766 24.07V32.604C144.766 33.1563 144.318 33.604 143.766 33.604H141.674C141.122 33.604 140.674 33.1563 140.674 32.604V24.902C140.674 23.7026 140.48 22.7942 140.041 22.1905C139.619 21.6093 138.927 21.254 137.78 21.254C136.59 21.254 135.765 21.6621 135.226 22.3577C134.677 23.0674 134.392 24.1219 134.392 25.474V32.604Z" fill="black"/>
<path d="M160.645 14C160.093 14 159.645 14.4477 159.645 15V18.4849C158.601 17.988 157.432 17.71 156.198 17.71C151.759 17.71 148.16 21.3086 148.16 25.7477C148.16 30.1867 151.759 33.7853 156.198 33.7853C157.526 33.7853 158.779 33.463 159.883 32.8923C159.883 32.9101 159.885 32.9375 159.885 32.8923V32.8923C159.885 33.2832 160.202 33.6 160.593 33.6H162.415C162.968 33.6 163.415 33.1523 163.415 32.6V30.287H163.413L163.413 21H163.415V15C163.415 14.4477 162.968 14 162.415 14L160.645 14Z" fill="black"/>
<path d="M160.498 25.8006C160.498 28.1754 158.573 30.1006 156.198 30.1006C153.823 30.1006 151.898 28.1754 151.898 25.8006C151.898 23.4258 153.823 21.5006 156.198 21.5006C158.573 21.5006 160.498 23.4258 160.498 25.8006Z" fill="white"/>
<path d="M175.011 33.99C178.189 33.99 180.39 32.81 181.557 30.9493L181.564 30.9377C182.112 29.9789 182.387 28.9606 182.387 27.862C182.387 25.7075 181.559 24.3478 180.257 23.5268C179.006 22.7381 177.445 22.339 175.909 22.0266L175.78 21.9995C175.019 21.8403 174.318 21.6935 173.699 21.5132C173.044 21.3224 172.51 21.1017 172.114 20.811C171.802 20.5767 171.623 20.1942 171.623 19.646C171.623 19.0709 171.811 18.5714 172.222 18.2107C172.64 17.8453 173.331 17.584 174.413 17.584C175.668 17.584 176.505 17.8584 176.972 18.2637C177.439 18.6689 177.602 19.1328 177.738 19.838C177.785 20.329 178.197 20.704 178.69 20.704H181.167C181.624 20.704 181.988 20.32 181.963 19.8631C181.836 18.2774 181.31 16.8266 180.078 15.7421C178.847 14.6576 176.968 14.064 174.465 14.064C171.395 14.064 169.346 15.1636 168.282 16.8995L168.278 16.9063L168.274 16.9133C167.809 17.7611 167.531 18.6992 167.531 19.698C167.531 20.753 167.727 21.6139 168.095 22.3176C168.464 23.023 168.995 23.5516 169.635 23.9552L169.64 23.9579C170.889 24.7185 172.423 25.0914 173.876 25.4028L173.883 25.4042C174.704 25.5605 175.475 25.7138 176.153 25.9133C176.833 26.1134 177.392 26.3528 177.8 26.6673L177.801 26.6681C178.136 26.9249 178.321 27.3573 178.321 27.94C178.321 28.6076 178.077 29.1933 177.571 29.6178C177.06 30.0471 176.247 30.34 175.063 30.34C173.66 30.34 172.725 30.0357 172.129 29.4824C171.69 29.075 171.262 28.3438 171.196 27.183C171.182 26.8118 170.877 26.518 170.506 26.518H167.613C167.207 26.518 166.884 26.8559 166.901 27.2612C166.961 28.5391 167.238 29.6758 167.761 30.7167C168.325 31.7865 169.179 32.6034 170.373 33.1528C171.578 33.7274 173.114 33.99 175.011 33.99Z" fill="black"/>
<path fill-rule="evenodd" clip-rule="evenodd" d="M187.036 19.5C186.484 19.5 186.036 19.9477 186.036 20.5V32.6C186.036 33.1523 186.484 33.6 187.036 33.6H189.154C189.706 33.6 190.154 33.1523 190.154 32.6V20.5C190.154 19.9477 189.706 19.5 189.154 19.5H187.036Z" fill="black"/>
<circle cx="188.095" cy="14.875" r="2.375" fill="black"/>
<path d="M196.632 17.5C196.632 18.6046 195.737 19.5 194.632 19.5H194.461C193.909 19.5 193.461 19.9477 193.461 20.5V22.05C193.461 22.6023 193.909 23.05 194.461 23.05H196.373V27H196.37V30.1C196.37 32.033 197.937 33.6 199.87 33.6L203.16 33.6C203.712 33.6 204.16 33.1523 204.16 32.6V30.77C204.16 30.2177 203.712 29.77 203.16 29.77H201.21C200.658 29.77 200.21 29.3223 200.21 28.77V27H200.207C200.207 26.9463 200.206 26.8916 200.206 26.8361C200.205 26.7972 200.205 26.7578 200.205 26.718V23.05H203.157C203.709 23.05 204.157 22.6023 204.157 22.05V20.5C204.157 19.9477 203.709 19.5 203.157 19.5H200.205V15C200.205 14.4477 199.757 14 199.205 14H197.633C197.081 14 196.633 14.4477 196.633 15V16.5C196.633 17 196.633 17.4441 196.632 17.5V17.5Z" fill="black"/>
<path fill-rule="evenodd" clip-rule="evenodd" d="M217.645 29.39C217.324 29.39 217.031 29.5555 216.794 29.7726C216.676 29.8803 216.548 29.976 216.409 30.0601C215.916 30.3583 215.259 30.526 214.389 30.526C213.215 30.526 212.305 30.2055 211.658 29.6282C211.081 29.1135 210.683 28.3689 210.508 27.39H220.999C221.552 27.39 221.999 26.9423 221.999 26.39V25.474C221.999 23.4929 221.464 21.5655 220.207 20.0623C218.939 18.5466 217.02 17.63 214.363 17.63C211.113 17.63 208.703 19.0088 207.39 21.4707L207.389 21.4734C206.737 22.7226 206.415 24.1022 206.415 25.76V26.124C206.415 28.4939 207.048 30.4714 208.372 31.8574C209.699 33.2461 211.674 33.994 214.259 33.994C216.271 33.994 217.927 33.5409 219.197 32.6722C219.97 32.1439 220.59 31.4685 221.059 30.6649C221.405 30.0714 220.923 29.39 220.236 29.39H217.645ZM216.902 21.8978C216.336 21.3288 215.517 20.994 214.389 20.994C213.271 20.994 212.392 21.3122 211.748 21.8827C211.178 22.388 210.768 23.1129 210.552 24.052H217.888C217.741 23.1313 217.408 22.4064 216.902 21.8978Z" fill="black"/>
</svg>
