<svg width="224" height="48" viewBox="0 0 224 48" fill="none" xmlns="http://www.w3.org/2000/svg">
<path d="M26.7577 9.78716L26.687 9.85787L26.7577 9.92858L38.0714 21.2423L38.1421 21.313L38.2128 21.2423L43.1626 16.2925C43.514 15.9411 44.0839 15.9411 44.4354 16.2925L45.8496 17.7068C46.201 18.0582 46.201 18.6281 45.8496 18.9795L40.8998 23.9293L40.8291 24L40.8998 24.0707L45.8496 29.0205C46.201 29.3719 46.201 29.9418 45.8496 30.2933L44.4354 31.7075C44.0839 32.0589 43.514 32.0589 43.1626 31.7075L38.2128 26.7577L38.1421 26.687L38.0714 26.7577L26.7577 38.0714L26.687 38.1421L26.7577 38.2128L31.7074 43.1626C32.0589 43.5141 32.0589 44.0839 31.7074 44.4354L30.2932 45.8496C29.9418 46.2011 29.3719 46.2011 29.0204 45.8496L24.0707 40.8999L24 40.8291L23.9293 40.8999L18.9795 45.8496C18.628 46.2011 18.0582 46.2011 17.7067 45.8496L16.2925 44.4354C15.941 44.0839 15.941 43.5141 16.2925 43.1626L21.2423 38.2128L21.313 38.1421L21.2423 38.0714L9.92856 26.7577L9.85784 26.687L9.78713 26.7577L4.83738 31.7075C4.48591 32.0589 3.91606 32.0589 3.56459 31.7075L2.15038 30.2933C1.7989 29.9418 1.7989 29.3719 2.15038 29.0205L7.10013 24.0707L7.17084 24L7.10013 23.9293L2.15038 18.9795C1.79891 18.6281 1.79891 18.0582 2.15038 17.7068L3.5646 16.2925C3.91607 15.9411 4.48592 15.9411 4.83739 16.2925L9.78713 21.2423L9.85784 21.313L9.92855 21.2423L21.2423 9.92858L21.313 9.85787L21.2423 9.78716L16.2925 4.83741C15.941 4.48594 15.941 3.91609 16.2925 3.56462L17.7067 2.15041C18.0582 1.79893 18.628 1.79893 18.9795 2.15041L23.9293 7.10016L24 7.17087L24.0707 7.10016L29.0204 2.15041C29.3719 1.79893 29.9418 1.79893 30.2932 2.15041L31.7074 3.56462C32.0589 3.91609 32.0589 4.48594 31.7074 4.83741L26.7577 9.78716ZM29.7275 18.2724C26.5643 15.1092 21.4357 15.1092 18.2724 18.2724C15.1092 21.4357 15.1092 26.5643 18.2724 29.7276C21.4357 32.8908 26.5643 32.8908 29.7275 29.7276C32.8908 26.5643 32.8908 21.4357 29.7275 18.2724Z" fill="white" stroke="black" stroke-width="0.2"/>
<circle cx="24" cy="24" r="9" fill="black"/>
<circle cx="24" cy="24" r="2.125" fill="white"/>
<path fill-rule="evenodd" clip-rule="evenodd" d="M59 14.402C58.4477 14.402 58 14.8497 58 15.402V32.6C58 33.1523 58.4477 33.6 59 33.6H65.74C68.1798 33.6 70.0262 33.1201 71.2686 32.1596C72.5264 31.1872 73.116 29.761 73.116 27.992C73.116 26.7976 72.844 25.833 72.2882 25.0764C71.8694 24.5063 71.3038 24.0739 70.6137 23.75C71.2079 23.4066 71.6879 22.9622 72.0417 22.3987C72.5226 21.6329 72.752 20.6764 72.752 19.516C72.752 17.8862 72.1982 16.579 70.9594 15.6951C69.7428 14.8271 67.9118 14.402 65.428 14.402H59ZM61.988 17.818H65.532C66.7605 17.818 67.5611 18.0063 68.049 18.3417C68.5089 18.6578 68.738 19.139 68.738 19.88C68.738 20.6778 68.4689 21.1964 67.9832 21.5327C67.4736 21.8855 66.6771 22.072 65.558 22.072H61.988V17.818ZM61.988 25.488H65.35C66.6731 25.488 67.583 25.6706 68.155 26.0291C68.694 26.367 68.972 26.8867 68.972 27.706C68.972 28.5028 68.7337 29.0487 68.212 29.4152C67.663 29.8009 66.7467 30.028 65.298 30.028H61.988V25.488Z" fill="white"/>
<path fill-rule="evenodd" clip-rule="evenodd" d="M86.4348 29.89C86.2407 29.89 86.0549 29.9597 85.8888 30.0601V30.0601C85.3957 30.3583 84.7382 30.526 83.869 30.526C82.6945 30.526 81.785 30.2055 81.1377 29.6282C80.5606 29.1135 80.163 28.3689 79.9871 27.39H90.479C91.0313 27.39 91.479 26.9423 91.479 26.39V25.474C91.479 23.4929 90.9434 21.5655 89.6862 20.0623C88.4185 18.5466 86.4999 17.63 83.843 17.63C80.5923 17.63 78.1828 19.0088 76.8698 21.4707L76.8684 21.4734C76.2167 22.7226 75.895 24.1022 75.895 25.76V26.124C75.895 28.4939 76.5279 30.4714 77.8519 31.8574C79.1784 33.2461 81.1535 33.994 83.739 33.994C85.7505 33.994 87.4062 33.5409 88.6768 32.6722C89.3538 32.2092 89.9141 31.6332 90.3576 30.957C90.6723 30.4773 90.2895 29.89 89.7158 29.89H86.4348ZM83.869 20.994C84.9963 20.994 85.8153 21.3288 86.3813 21.8978C86.8874 22.4064 87.2203 23.1313 87.3674 24.052H80.032C80.248 23.1129 80.6579 22.388 81.2279 21.8827C81.8716 21.3122 82.7507 20.994 83.869 20.994Z" fill="white"/>
<path d="M94.1856 17.99C93.6123 17.99 93.2251 18.5753 93.4493 19.1029L99.3046 32.88L99.3093 32.88L98.5043 34.9348C98.3542 35.3179 97.9847 35.57 97.5732 35.57H94.8701C94.3178 35.57 93.8701 36.0177 93.8701 36.57V38.19C93.8701 38.7423 94.3178 39.19 94.8701 39.19L97.7248 39.19C99.544 39.19 101.184 38.0945 101.881 36.4141L104.137 30.9766L104.134 30.9776L109.059 19.0963C109.277 18.5695 108.89 17.99 108.32 17.99H105.961C105.508 17.99 105.101 18.2681 104.937 18.6905L101.33 27.9438L97.6153 18.6806C97.448 18.2634 97.0438 17.99 96.5943 17.99H94.1856Z" fill="white"/>
<path d="M126.788 25.81C126.788 30.283 123.162 33.9091 118.689 33.9091C114.216 33.9091 110.59 30.283 110.59 25.81C110.59 21.337 114.216 17.7109 118.689 17.7109C123.162 17.7109 126.788 21.337 126.788 25.81Z" fill="white"/>
<path d="M123.399 25.81C123.399 28.4112 121.29 30.52 118.689 30.52C116.088 30.52 113.979 28.4112 113.979 25.81C113.979 23.2087 116.088 21.1 118.689 21.1C121.29 21.1 123.399 23.2087 123.399 25.81Z" fill="black"/>
<path d="M134.392 32.604C134.392 33.1563 133.944 33.604 133.392 33.604H131.3C130.748 33.604 130.3 33.1563 130.3 32.604V18.9975C130.3 18.4439 130.75 17.9956 131.303 17.9975L132 18H133L133.383 17.9972C133.938 17.9932 134.39 18.4421 134.39 18.9972V19.6533C134.71 19.2461 135.084 18.8902 135.513 18.5949C136.42 17.9702 137.554 17.63 138.898 17.63C140.782 17.63 142.264 18.2564 143.27 19.4031C144.271 20.5435 144.766 22.1577 144.766 24.07V32.604C144.766 33.1563 144.318 33.604 143.766 33.604H141.674C141.122 33.604 140.674 33.1563 140.674 32.604V24.902C140.674 23.7026 140.48 22.7942 140.041 22.1905C139.619 21.6093 138.927 21.254 137.78 21.254C136.59 21.254 135.765 21.6621 135.226 22.3577C134.677 23.0674 134.392 24.1219 134.392 25.474V32.604Z" fill="white"/>
<path d="M160.645 14C160.093 14 159.645 14.4477 159.645 15V18.4849C158.601 17.988 157.432 17.71 156.198 17.71C151.759 17.71 148.16 21.3086 148.16 25.7477C148.16 30.1867 151.759 33.7853 156.198 33.7853C157.526 33.7853 158.779 33.463 159.883 32.8923C159.883 32.9101 159.885 32.9375 159.885 32.8923V32.8923C159.885 33.2832 160.202 33.6 160.593 33.6H162.415C162.968 33.6 163.415 33.1523 163.415 32.6V30.287H163.413L163.413 21H163.415V15C163.415 14.4477 162.968 14 162.415 14L160.645 14Z" fill="white"/>
<path d="M160.898 25.8006C160.898 28.3964 158.793 30.5006 156.198 30.5006C153.602 30.5006 151.498 28.3964 151.498 25.8006C151.498 23.2049 153.602 21.1006 156.198 21.1006C158.793 21.1006 160.898 23.2049 160.898 25.8006Z" fill="black"/>
<path d="M175.011 33.99C178.189 33.99 180.39 32.81 181.557 30.9493L181.564 30.9377C182.112 29.9789 182.387 28.9606 182.387 27.862C182.387 25.7075 181.559 24.3478 180.257 23.5268C179.006 22.7381 177.445 22.339 175.909 22.0266L175.78 21.9995C175.019 21.8403 174.318 21.6935 173.699 21.5132C173.044 21.3224 172.51 21.1017 172.114 20.811C171.802 20.5767 171.623 20.1942 171.623 19.646C171.623 19.0709 171.811 18.5714 172.222 18.2107C172.64 17.8453 173.331 17.584 174.413 17.584C175.668 17.584 176.505 17.8584 176.972 18.2637C177.439 18.6689 177.602 19.1328 177.738 19.838C177.785 20.329 178.197 20.704 178.69 20.704H181.167C181.624 20.704 181.988 20.32 181.963 19.8631C181.836 18.2774 181.31 16.8266 180.078 15.7421C178.847 14.6576 176.968 14.064 174.465 14.064C171.395 14.064 169.346 15.1636 168.282 16.8995L168.278 16.9063L168.274 16.9133C167.809 17.7611 167.531 18.6992 167.531 19.698C167.531 20.753 167.727 21.6139 168.095 22.3176C168.464 23.023 168.995 23.5516 169.635 23.9552L169.64 23.9579C170.889 24.7185 172.423 25.0914 173.876 25.4028L173.883 25.4042C174.704 25.5605 175.475 25.7138 176.153 25.9133C176.833 26.1134 177.392 26.3528 177.8 26.6673L177.801 26.6681C178.136 26.9249 178.321 27.3573 178.321 27.94C178.321 28.6076 178.077 29.1933 177.571 29.6178C177.06 30.0471 176.247 30.34 175.063 30.34C173.66 30.34 172.725 30.0357 172.129 29.4824C171.69 29.075 171.262 28.3438 171.196 27.183C171.182 26.8118 170.877 26.518 170.506 26.518H167.613C167.207 26.518 166.884 26.8559 166.901 27.2612C166.961 28.5391 167.238 29.6758 167.761 30.7167C168.325 31.7865 169.179 32.6034 170.373 33.1528C171.578 33.7274 173.114 33.99 175.011 33.99Z" fill="white"/>
<path fill-rule="evenodd" clip-rule="evenodd" d="M187.036 20.5C186.484 20.5 186.036 20.9477 186.036 21.5V32.6C186.036 33.1523 186.484 33.6 187.036 33.6H189.154C189.706 33.6 190.154 33.1523 190.154 32.6V21.5C190.154 20.9477 189.706 20.5 189.154 20.5H187.036Z" fill="white"/>
<circle cx="188.095" cy="14.875" r="2.375" fill="white"/>
<path d="M196.632 17.5C196.632 18.6046 195.737 19.5 194.632 19.5H194.461C193.909 19.5 193.461 19.9477 193.461 20.5V22.05C193.461 22.6023 193.909 23.05 194.461 23.05H196.373V27H196.37V30.1C196.37 32.033 197.937 33.6 199.87 33.6L203.16 33.6C203.712 33.6 204.16 33.1523 204.16 32.6V30.77C204.16 30.2177 203.712 29.77 203.16 29.77H201.21C200.658 29.77 200.21 29.3223 200.21 28.77V27H200.207C200.207 26.9463 200.206 26.8916 200.206 26.8361C200.205 26.7972 200.205 26.7578 200.205 26.718V23.05H203.157C203.709 23.05 204.157 22.6023 204.157 22.05V20.5C204.157 19.9477 203.709 19.5 203.157 19.5H200.205V15C200.205 14.4477 199.757 14 199.205 14H197.633C197.081 14 196.633 14.4477 196.633 15V16.5C196.633 17 196.633 17.4441 196.632 17.5V17.5Z" fill="white"/>
<path fill-rule="evenodd" clip-rule="evenodd" d="M216.955 29.89C216.761 29.89 216.575 29.9597 216.409 30.0601V30.0601C215.916 30.3583 215.258 30.526 214.389 30.526C213.215 30.526 212.305 30.2055 211.658 29.6282C211.081 29.1135 210.683 28.3689 210.507 27.39H220.999C221.552 27.39 221.999 26.9423 221.999 26.39V25.474C221.999 23.4929 221.464 21.5655 220.206 20.0623C218.939 18.5466 217.02 17.63 214.363 17.63C211.113 17.63 208.703 19.0088 207.39 21.4707L207.389 21.4734C206.737 22.7226 206.415 24.1022 206.415 25.76V26.124C206.415 28.4939 207.048 30.4714 208.372 31.8574C209.699 33.2461 211.674 33.994 214.259 33.994C216.271 33.994 217.926 33.5409 219.197 32.6722C219.874 32.2092 220.434 31.6332 220.878 30.957C221.193 30.4773 220.81 29.89 220.236 29.89H216.955ZM214.389 20.994C215.517 20.994 216.336 21.3288 216.902 21.8978C217.408 22.4064 217.741 23.1313 217.888 24.052H210.552C210.768 23.1129 211.178 22.388 211.748 21.8827C212.392 21.3122 213.271 20.994 214.389 20.994Z" fill="white"/>
</svg>
