<svg width="222" height="48" viewBox="0 0 222 48" fill="none" xmlns="http://www.w3.org/2000/svg">
<path d="M22.4974 25.5026C23.3273 26.3325 24.6727 26.3325 25.5026 25.5026C26.3325 24.6727 26.3325 23.3273 25.5026 22.4974C24.6727 21.6675 23.3273 21.6675 22.4974 22.4974C21.6675 23.3273 21.6675 24.6727 22.4974 25.5026Z" fill="black"/>
<path fill-rule="evenodd" clip-rule="evenodd" d="M4.90811 16.2218C4.51758 15.8313 3.88442 15.8313 3.4939 16.2218L2.78679 16.9289C2.39626 17.3194 2.39627 17.9526 2.78679 18.3431L21.8787 37.435L16.2219 43.0919C15.8313 43.4824 15.8313 44.1156 16.2219 44.5061L16.929 45.2132C17.3195 45.6037 17.9527 45.6037 18.3432 45.2132L37.4351 26.1213L43.0919 31.7782C43.4824 32.1687 44.1156 32.1687 44.5061 31.7782L45.2132 31.0711C45.6037 30.6806 45.6038 30.0474 45.2132 29.6569L26.1213 10.565L31.7782 4.90811C32.1687 4.51758 32.1687 3.88442 31.7782 3.4939L31.0711 2.78679C30.6806 2.39627 30.0474 2.39627 29.6569 2.78679L10.565 21.8787L4.90811 16.2218ZM15.5003 23.9999C15.5003 19.3055 19.3059 15.4999 24.0003 15.4999C28.6947 15.4999 32.5003 19.3055 32.5003 23.9999C32.5003 28.6943 28.6947 32.4999 24.0003 32.4999C19.3059 32.4999 15.5003 28.6943 15.5003 23.9999Z" fill="black"/>
<path d="M40.9706 22.5858L38.8493 20.4644L43.0919 16.2218C43.4824 15.8313 44.1156 15.8313 44.5061 16.2218L45.2132 16.9289C45.6038 17.3194 45.6038 17.9526 45.2132 18.3431L40.9706 22.5858Z" fill="black"/>
<path d="M27.5354 38.8491L25.414 40.9704L29.6568 45.2132C30.0474 45.6037 30.6805 45.6037 31.0711 45.2132L31.7782 44.5061C32.1687 44.1156 32.1687 43.4824 31.7782 43.0919L27.5354 38.8491Z" fill="black"/>
<path d="M7.02948 25.4142L9.1508 27.5355L4.90813 31.7782C4.5176 32.1687 3.88444 32.1687 3.49392 31.7782L2.78681 31.0711C2.39628 30.6805 2.39628 30.0474 2.78681 29.6568L7.02948 25.4142Z" fill="black"/>
<path d="M22.5856 7.02925L18.3432 2.7868C17.9526 2.39628 17.3195 2.39628 16.929 2.7868L16.2218 3.49391C15.8313 3.88443 15.8313 4.5176 16.2219 4.90812L20.4643 9.15057L22.5856 7.02925Z" fill="black"/>
<path d="M186.93 17.5475C187.76 18.3774 189.106 18.3774 189.936 17.5475C190.766 16.7177 190.766 15.3722 189.936 14.5423C189.106 13.7125 187.76 13.7125 186.93 14.5423C186.101 15.3722 186.101 16.7177 186.93 17.5475Z" fill="black"/>
<path d="M181.373 30.7744C180.25 32.5668 178.11 33.744 174.926 33.744C173 33.744 171.475 33.4764 170.298 32.9146C168.245 31.9711 167.254 30.2373 166.975 27.7681C166.911 27.2056 167.37 26.7346 167.936 26.7346H169.675C170.216 26.7346 170.646 27.1676 170.739 27.6999C171.089 29.6958 172.396 30.6674 174.979 30.6674C177.521 30.6674 178.671 29.41 178.671 27.8583C178.671 27.1895 178.457 26.6276 178.003 26.2798C177.066 25.5575 175.515 25.2365 173.829 24.9154C172.331 24.5944 170.806 24.2199 169.575 23.4708C168.345 22.6949 167.569 21.4643 167.569 19.3776C167.569 18.4144 167.836 17.5048 168.291 16.6755C169.308 15.0168 171.288 13.9199 174.364 13.9199C178.949 13.9199 181.202 15.8334 181.682 19.0421C181.766 19.6019 181.305 20.0731 180.739 20.0731H179.077C178.549 20.0731 178.128 19.6567 178.007 19.1421C177.643 17.5902 176.551 16.8628 174.311 16.8628C171.983 16.8628 171.1 17.9864 171.1 19.324C171.1 19.9661 171.314 20.4744 171.742 20.7955C172.626 21.4454 174.041 21.7417 175.642 22.0771L175.782 22.1064C177.36 22.4274 178.912 22.8287 180.143 23.6045C181.373 24.3804 182.176 25.6645 182.176 27.778C182.176 28.8481 181.908 29.838 181.373 30.7744Z" fill="black"/>
<path fill-rule="evenodd" clip-rule="evenodd" d="M159.785 15.25V18.8806L159.428 18.7107C158.416 18.2294 157.284 17.96 156.088 17.96C151.787 17.96 148.3 21.4466 148.3 25.7477C148.3 30.0487 151.787 33.5353 156.088 33.5353C157.374 33.5353 158.593 33.2238 159.661 32.6726L160.025 32.4844C160.025 32.9624 160.413 33.35 160.891 33.35H162.055C162.608 33.35 163.055 32.9023 163.055 32.35V30.537H163.053L163.053 20.75H163.055V15.25C163.055 14.6977 162.608 14.25 162.055 14.25H160.785C160.233 14.25 159.785 14.6977 159.785 15.25ZM151.38 25.81C151.38 23.2839 153.428 21.2361 155.954 21.2361C158.48 21.2361 160.528 23.2839 160.528 25.81C160.528 28.3361 158.48 30.3839 155.954 30.3839C153.428 30.3839 151.38 28.3361 151.38 25.81Z" fill="black"/>
<path fill-rule="evenodd" clip-rule="evenodd" d="M65.49 33.35H59C58.4477 33.35 58 32.9023 58 32.35V15.652C58 15.0997 58.4477 14.652 59 14.652H65.178C67.6415 14.652 69.41 15.0751 70.5642 15.8986C71.7237 16.7259 72.252 17.9488 72.252 19.516C72.252 20.6443 72.029 21.5508 71.58 22.2658C71.25 22.7914 70.8013 23.2083 70.2386 23.5335L69.8244 23.773L70.2575 23.9763C70.9171 24.2858 71.447 24.6938 71.8367 25.2244C72.3531 25.9273 72.616 26.8357 72.616 27.992C72.616 29.7012 72.0495 31.0465 70.8657 31.9618C69.6855 32.8742 67.9035 33.35 65.49 33.35ZM65.282 17.568H61.488V22.322H65.308C66.446 22.322 67.3038 22.134 67.8755 21.7382C68.4411 21.3466 68.738 20.7433 68.738 19.88C68.738 19.0795 68.4852 18.51 67.9407 18.1357C67.389 17.7564 66.5252 17.568 65.282 17.568ZM65.1 25.238H61.488V30.278H65.048C66.512 30.278 67.4925 30.0506 68.1058 29.6198C68.7121 29.1938 68.972 28.5594 68.972 27.706C68.972 27.2686 68.8978 26.8934 68.7394 26.5755C68.5798 26.2553 68.3418 26.0079 68.0378 25.8173C67.4042 25.4201 66.4351 25.238 65.1 25.238Z" fill="black"/>
<path fill-rule="evenodd" clip-rule="evenodd" d="M85.7681 30.274C85.9025 30.1928 86.0539 30.14 86.211 30.14H89.08C89.6359 30.14 89.9908 30.7231 89.6543 31.1656C89.2724 31.6677 88.8162 32.103 88.2857 32.4658C87.0667 33.2993 85.4638 33.744 83.489 33.744C80.9516 33.744 79.0497 33.0112 77.7827 31.6848C76.5163 30.359 75.895 28.4516 75.895 26.124V25.76C75.895 24.1369 76.2094 22.7979 76.8401 21.589L76.841 21.5874C78.1048 19.2185 80.422 17.88 83.593 17.88C86.1871 17.88 88.031 18.7719 89.2444 20.2227C90.4552 21.6704 90.979 23.5361 90.979 25.474V26.14C90.979 26.6923 90.5313 27.14 89.979 27.14H79.4382L79.4911 27.4342C79.6748 28.4568 80.0946 29.2559 80.7213 29.8148C81.4247 30.4422 82.3986 30.776 83.619 30.776C84.5191 30.776 85.2251 30.6024 85.7681 30.274ZM87.4105 24.302L87.3642 24.0126C87.2113 23.0551 86.8611 22.2768 86.3086 21.7214C85.6863 21.0961 84.7984 20.744 83.619 20.744C82.4517 20.744 81.5098 21.0772 80.8121 21.6956C80.1958 22.2419 79.7636 23.0166 79.5384 23.996L79.468 24.302H87.4105Z" fill="black"/>
<path d="M104.903 18.9405L101.129 28.6238L97.2419 18.9306C97.0746 18.5134 96.6704 18.24 96.221 18.24H94.3592C93.7859 18.24 93.3987 18.8253 93.6229 19.3529L99.2656 32.6298L99.37 32.8867L98.7192 34.549C98.4192 35.3156 97.68 35.82 96.8568 35.82H94.9159C94.3636 35.82 93.9159 36.2677 93.9159 36.82V37.94C93.9159 38.4923 94.3636 38.94 94.9159 38.94L97.3535 38.94C99.1728 38.94 100.813 37.8445 101.51 36.1641L103.476 31.4255L103.473 31.4264L108.48 19.3463C108.698 18.8195 108.311 18.24 107.741 18.24H105.928C105.475 18.24 105.068 18.5181 104.903 18.9405Z" fill="black"/>
<path fill-rule="evenodd" clip-rule="evenodd" d="M118.539 33.6591C122.874 33.6591 126.388 30.1449 126.388 25.81C126.388 21.4751 122.874 17.9609 118.539 17.9609C114.204 17.9609 110.69 21.4751 110.69 25.81C110.69 30.1449 114.204 33.6591 118.539 33.6591ZM113.781 25.8101C113.781 23.182 115.911 21.0515 118.539 21.0515C121.167 21.0515 123.298 23.182 123.298 25.8101C123.298 28.4381 121.167 30.5686 118.539 30.5686C115.911 30.5686 113.781 28.4381 113.781 25.8101Z" fill="black"/>
<path d="M133.023 18.249L132.89 18.25L131.89 18.25L131.443 18.2484C130.89 18.2465 130.44 18.6948 130.44 19.2484V32.354C130.44 32.9063 130.888 33.354 131.44 33.354H133.032C133.584 33.354 134.032 32.9063 134.032 32.354V25.474C134.032 24.0924 134.323 22.975 134.919 22.2047C135.512 21.4379 136.416 21.004 137.67 21.004C138.874 21.004 139.652 21.3808 140.134 22.0435C140.619 22.7119 140.814 23.6855 140.814 24.902V32.354C140.814 32.9063 141.262 33.354 141.814 33.354H143.406C143.958 33.354 144.406 32.9063 144.406 32.354V24.07C144.406 22.198 143.922 20.6495 142.972 19.568C142.022 18.4849 140.614 17.88 138.788 17.88C137.487 17.88 136.405 18.2087 135.545 18.8009C135.137 19.0813 134.781 19.4195 134.476 19.8077L134.03 20.3761V19.249C134.03 18.6939 133.578 18.2451 133.023 18.249Z" fill="black"/>
<path d="M186.624 32.6V22.42C186.624 22.0058 186.96 21.67 187.374 21.67H189.492C189.906 21.67 190.242 22.0058 190.242 22.42V32.6C190.242 33.0142 189.906 33.35 189.492 33.35H187.374C186.96 33.35 186.624 33.0142 186.624 32.6Z" fill="black"/>
<path d="M203.997 32.35C203.997 32.9023 203.549 33.35 202.997 33.35L200.207 33.35C198.274 33.35 196.707 31.783 196.707 29.85V27.25H196.71V22.8H194.798C194.246 22.8 193.798 22.3523 193.798 21.8V20.75C193.798 20.1977 194.246 19.75 194.798 19.75H194.969C196.074 19.75 196.969 18.8546 196.969 17.75V17.5012C196.97 17.4385 196.97 16.9952 196.97 16.5V15.25C196.97 14.6977 197.418 14.25 197.97 14.25H199.042C199.594 14.25 200.042 14.6977 200.042 15.25V19.75H202.994C203.546 19.75 203.994 20.1977 203.994 20.75V21.8C203.994 22.3523 203.546 22.8 202.994 22.8H200.042V26.718C200.042 26.7392 200.042 26.7602 200.042 26.7811C200.042 26.8001 200.042 26.819 200.042 26.8377C200.043 26.8941 200.043 26.9496 200.044 27.0041L200.047 27.1586V29.02C200.047 29.5723 200.494 30.02 201.047 30.02H202.997C203.549 30.02 203.997 30.4677 203.997 31.02V32.35Z" fill="black"/>
<path fill-rule="evenodd" clip-rule="evenodd" d="M217.228 30.14C217.071 30.14 216.92 30.1928 216.785 30.274C216.242 30.6024 215.536 30.776 214.636 30.776C213.416 30.776 212.442 30.4422 211.738 29.8148C211.112 29.2559 210.692 28.4568 210.508 27.4342L210.455 27.14H220.996C221.549 27.14 221.996 26.6923 221.996 26.14V25.474C221.996 23.5361 221.472 21.6704 220.262 20.2227C219.048 18.7719 217.204 17.88 214.61 17.88C211.439 17.88 209.122 19.2185 207.858 21.5874L207.857 21.589C207.227 22.7979 206.912 24.1369 206.912 25.76V26.124C206.912 28.4516 207.533 30.359 208.8 31.6848C210.067 33.0112 211.969 33.744 214.506 33.744C216.481 33.744 218.084 33.2993 219.303 32.4658C219.833 32.103 220.29 31.6677 220.672 31.1656C221.008 30.7231 220.653 30.14 220.097 30.14H217.228ZM218.381 24.0126L218.428 24.302H210.485L210.556 23.996C210.781 23.0166 211.213 22.2419 211.829 21.6956C212.527 21.0772 213.469 20.744 214.636 20.744C215.816 20.744 216.704 21.0961 217.326 21.7214C217.878 22.2768 218.228 23.0551 218.381 24.0126Z" fill="black"/>
</svg>
