<svg width="224" height="48" viewBox="0 0 224 48" fill="none" xmlns="http://www.w3.org/2000/svg">
<path fill-rule="evenodd" clip-rule="evenodd" d="M28.9496 2.07964C29.3401 1.68911 29.9733 1.68911 30.3638 2.07964L31.778 3.49385C32.1685 3.88438 32.1685 4.51754 31.778 4.90806L26.8283 9.85781L38.142 21.1715L43.0917 16.2218C43.4822 15.8312 44.1154 15.8312 44.5059 16.2218L45.9201 17.636C46.3107 18.0265 46.3107 18.6597 45.9201 19.0502L40.9704 24L45.9201 28.9497C46.3107 29.3402 46.3107 29.9734 45.9201 30.3639L44.5059 31.7781C44.1154 32.1686 43.4822 32.1686 43.0917 31.7781L38.142 26.8284L26.8283 38.1421L31.778 43.0918C32.1685 43.4824 32.1685 44.1155 31.778 44.506L30.3638 45.9203C29.9733 46.3108 29.3401 46.3108 28.9496 45.9203L23.9998 40.9705L19.0501 45.9203C18.6596 46.3108 18.0264 46.3108 17.6359 45.9203L16.2216 44.506C15.8311 44.1155 15.8311 43.4824 16.2216 43.0918L21.1714 38.1421L9.85769 26.8284L4.90794 31.7781C4.51742 32.1686 3.88425 32.1686 3.49373 31.7781L2.07951 30.3639C1.68899 29.9734 1.68899 29.3402 2.07951 28.9497L7.02927 23.9999L2.07952 19.0502C1.689 18.6597 1.689 18.0265 2.07952 17.636L3.49373 16.2218C3.88426 15.8312 4.51742 15.8312 4.90795 16.2218L9.85769 21.1715L21.1714 9.85781L16.2216 4.90806C15.8311 4.51754 15.8311 3.88437 16.2216 3.49385L17.6359 2.07964C18.0264 1.68911 18.6595 1.68911 19.0501 2.07964L23.9998 7.02939L28.9496 2.07964ZM18.343 18.3431C21.4672 15.2189 26.5325 15.2189 29.6567 18.3431V18.3431C32.7809 21.4673 32.7809 26.5326 29.6567 29.6568V29.6568C26.5325 32.781 21.4672 32.781 18.343 29.6568V29.6568C15.2188 26.5326 15.2188 21.4673 18.343 18.3431V18.3431Z" fill="#A2FFCB"/>
<circle cx="24" cy="24" r="8.5" fill="#01475A"/>
<circle cx="24" cy="24" r="2.375" fill="#A2FFCB"/>
<path fill-rule="evenodd" clip-rule="evenodd" d="M59 14.402C58.4477 14.402 58 14.8497 58 15.402V32.6C58 33.1523 58.4477 33.6 59 33.6H65.74C68.1798 33.6 70.0262 33.12 71.2686 32.1596C72.5264 31.1871 73.116 29.761 73.116 27.992C73.116 26.7976 72.844 25.8329 72.2882 25.0764C71.8694 24.5062 71.3038 24.0738 70.6137 23.75C71.2079 23.4065 71.6879 22.9622 72.0417 22.3987C72.5226 21.6329 72.752 20.6763 72.752 19.516C72.752 17.8862 72.1982 16.5789 70.9594 15.6951C69.7428 14.8271 67.9118 14.402 65.428 14.402H59ZM61.988 17.818H65.532C66.7605 17.818 67.5611 18.0062 68.049 18.3417C68.5089 18.6578 68.738 19.1389 68.738 19.88C68.738 20.6777 68.4689 21.1964 67.9832 21.5327C67.4736 21.8854 66.6771 22.072 65.558 22.072H61.988V17.818ZM61.988 25.488H65.35C66.6731 25.488 67.583 25.6705 68.155 26.0291C68.694 26.367 68.972 26.8867 68.972 27.706C68.972 28.5028 68.7337 29.0487 68.212 29.4152C67.663 29.8009 66.7467 30.028 65.298 30.028H61.988V25.488Z" fill="#A2FFCB"/>
<path fill-rule="evenodd" clip-rule="evenodd" d="M86.4348 29.89C86.2407 29.89 86.0549 29.9597 85.8888 30.0601V30.0601C85.3957 30.3583 84.7382 30.526 83.869 30.526C82.6945 30.526 81.785 30.2055 81.1377 29.6282C80.5606 29.1135 80.163 28.3689 79.9871 27.39H90.479C91.0313 27.39 91.479 26.9423 91.479 26.39V25.474C91.479 23.4929 90.9434 21.5655 89.6862 20.0623C88.4185 18.5466 86.4999 17.63 83.843 17.63C80.5923 17.63 78.1828 19.0088 76.8698 21.4707L76.8684 21.4734C76.2167 22.7226 75.895 24.1022 75.895 25.76V26.124C75.895 28.4939 76.5279 30.4714 77.8519 31.8574C79.1784 33.2461 81.1535 33.994 83.739 33.994C85.7505 33.994 87.4062 33.5409 88.6768 32.6722C89.3538 32.2092 89.9141 31.6332 90.3576 30.957C90.6723 30.4773 90.2895 29.89 89.7158 29.89H86.4348ZM83.869 20.994C84.9963 20.994 85.8153 21.3288 86.3813 21.8978C86.8874 22.4064 87.2203 23.1313 87.3674 24.052H80.032C80.248 23.1129 80.6579 22.388 81.2279 21.8827C81.8716 21.3122 82.7507 20.994 83.869 20.994Z" fill="#A2FFCB"/>
<path d="M94.1858 17.99C93.6125 17.99 93.2253 18.5753 93.4496 19.1029L99.3048 32.88L99.3096 32.88L98.7534 34.2996C98.4532 35.0659 97.7142 35.57 96.8912 35.57H94.8704C94.3181 35.57 93.8704 36.0177 93.8704 36.57V38.19C93.8704 38.7423 94.3181 39.19 94.8704 39.19L97.725 39.19C99.5443 39.19 101.185 38.0945 101.882 36.4141L104.137 30.9766L104.134 30.9776L109.059 19.0963C109.277 18.5695 108.89 17.99 108.32 17.99H105.962C105.508 17.99 105.101 18.2681 104.937 18.6905L101.33 27.9438L97.6155 18.6806C97.4482 18.2634 97.044 17.99 96.5946 17.99H94.1858Z" fill="#A2FFCB"/>
<path fill-rule="evenodd" clip-rule="evenodd" d="M118.689 33.9091C123.162 33.9091 126.788 30.283 126.788 25.81C126.788 21.337 123.162 17.7109 118.689 17.7109C114.216 17.7109 110.59 21.337 110.59 25.81C110.59 30.283 114.216 33.9091 118.689 33.9091ZM118.689 30.52C121.291 30.52 123.399 28.4112 123.399 25.81C123.399 23.2087 121.291 21.1 118.689 21.1C116.088 21.1 113.979 23.2087 113.979 25.81C113.979 28.4112 116.088 30.52 118.689 30.52Z" fill="#A2FFCB"/>
<path d="M134.392 32.604C134.392 33.1563 133.944 33.604 133.392 33.604H131.3C130.748 33.604 130.3 33.1563 130.3 32.604V18.9975C130.3 18.4439 130.75 17.9956 131.303 17.9975L132 18H133L133.383 17.9972C133.938 17.9932 134.39 18.4421 134.39 18.9972V19.6533C134.71 19.2461 135.084 18.8902 135.513 18.5949C136.42 17.9702 137.554 17.63 138.898 17.63C140.782 17.63 142.264 18.2564 143.27 19.4031C144.271 20.5435 144.766 22.1577 144.766 24.07V32.604C144.766 33.1563 144.318 33.604 143.766 33.604H141.674C141.122 33.604 140.674 33.1563 140.674 32.604V24.902C140.674 23.7026 140.48 22.7942 140.041 22.1905C139.619 21.6093 138.927 21.254 137.78 21.254C136.59 21.254 135.764 21.6621 135.226 22.3577C134.677 23.0674 134.392 24.1219 134.392 25.474V32.604Z" fill="#A2FFCB"/>
<path fill-rule="evenodd" clip-rule="evenodd" d="M159.646 15C159.646 14.4477 160.093 14 160.646 14H162.416C162.968 14 163.416 14.4477 163.416 15V21H163.414L163.414 30.287H163.415V32.6C163.415 33.1523 162.968 33.6 162.415 33.6H160.593C160.202 33.6 159.885 33.2832 159.885 32.8923C159.885 32.9375 159.884 32.9101 159.884 32.8923C158.78 33.463 157.526 33.7853 156.198 33.7853C151.759 33.7853 148.16 30.1867 148.16 25.7477C148.16 21.3086 151.759 17.71 156.198 17.71C157.432 17.71 158.601 17.988 159.646 18.4849V15ZM156.123 30.4255C158.677 30.4255 160.748 28.3549 160.748 25.8005C160.748 23.2462 158.677 21.1755 156.123 21.1755C153.569 21.1755 151.498 23.2462 151.498 25.8005C151.498 28.3549 153.569 30.4255 156.123 30.4255Z" fill="#A2FFCB"/>
<path d="M175.019 33.99C178.262 33.99 180.507 32.7861 181.697 30.8877L181.704 30.8759C182.263 29.8976 182.545 28.8587 182.545 27.7378C182.545 25.5396 181.7 24.1523 180.371 23.3147C179.095 22.51 177.502 22.1028 175.935 21.7841L175.803 21.7564C175.027 21.594 174.312 21.4442 173.681 21.2602C173.012 21.0656 172.467 20.8404 172.063 20.5439C171.745 20.3048 171.562 19.9145 171.562 19.3552C171.562 18.7684 171.753 18.2588 172.173 17.8909C172.599 17.518 173.305 17.2514 174.409 17.2514C175.689 17.2514 176.544 17.5314 177.02 17.9449C177.496 18.3584 177.662 18.8316 177.802 19.5512C177.849 20.0521 178.27 20.4347 178.773 20.4347H181.299C181.766 20.4347 182.137 20.0428 182.112 19.5767C181.982 17.9588 181.445 16.4786 180.189 15.3721C178.932 14.2656 177.015 13.66 174.462 13.66C171.329 13.66 169.238 14.782 168.153 16.5531L168.149 16.56L168.145 16.5671C167.67 17.4321 167.387 18.3892 167.387 19.4083C167.387 20.4846 167.587 21.363 167.963 22.081C168.339 22.8007 168.881 23.34 169.534 23.7518L169.538 23.7545C170.813 24.5306 172.378 24.911 173.861 25.2287L173.868 25.2301C174.705 25.3896 175.492 25.546 176.184 25.7496C176.877 25.9538 177.448 26.198 177.864 26.5189L177.865 26.5197C178.208 26.7817 178.396 27.2228 178.396 27.8174C178.396 28.4986 178.147 29.0961 177.631 29.5292C177.109 29.9672 176.28 30.266 175.072 30.266C173.641 30.266 172.686 29.9556 172.078 29.3911C171.63 28.9754 171.193 28.2293 171.126 27.045C171.112 26.6663 170.801 26.3665 170.422 26.3665H167.471C167.057 26.3665 166.726 26.7113 166.744 27.1248C166.805 28.4286 167.088 29.5884 167.622 30.6504C168.197 31.7418 169.069 32.5753 170.287 33.1359C171.516 33.7221 173.083 33.99 175.019 33.99Z" fill="#A2FFCB" stroke="#034758" stroke-width="0.1"/>
<path fill-rule="evenodd" clip-rule="evenodd" d="M187.036 21.42C186.484 21.42 186.036 21.8678 186.036 22.42V32.6C186.036 33.1523 186.484 33.6 187.036 33.6H189.154C189.706 33.6 190.154 33.1523 190.154 32.6V22.42C190.154 21.8678 189.706 21.42 189.154 21.42H187.036Z" fill="#A2FFCB"/>
<circle cx="188.095" cy="16.045" r="2.375" fill="#A2FFCB"/>
<path d="M196.632 17.5C196.632 18.6046 195.737 19.5 194.632 19.5H194.461C193.909 19.5 193.461 19.9477 193.461 20.5V22.05C193.461 22.6023 193.909 23.05 194.461 23.05H196.373V27H196.37V30.1C196.37 32.033 197.937 33.6 199.87 33.6L203.16 33.6C203.712 33.6 204.16 33.1523 204.16 32.6V30.77C204.16 30.2177 203.712 29.77 203.16 29.77H201.21C200.657 29.77 200.21 29.3223 200.21 28.77V27H200.207C200.206 26.9463 200.206 26.8916 200.205 26.8361C200.205 26.7972 200.205 26.7578 200.205 26.718V23.05H203.157C203.709 23.05 204.157 22.6023 204.157 22.05V20.5C204.157 19.9477 203.709 19.5 203.157 19.5H200.205V15C200.205 14.4477 199.757 14 199.205 14H197.633C197.081 14 196.633 14.4477 196.633 15V16.5C196.633 17 196.633 17.4441 196.632 17.5V17.5Z" fill="#A2FFCB"/>
<path fill-rule="evenodd" clip-rule="evenodd" d="M216.955 29.89C216.761 29.89 216.575 29.9597 216.409 30.0601V30.0601C215.916 30.3583 215.258 30.526 214.389 30.526C213.214 30.526 212.305 30.2055 211.658 29.6282C211.081 29.1135 210.683 28.3689 210.507 27.39H220.999C221.551 27.39 221.999 26.9423 221.999 26.39V25.474C221.999 23.4929 221.463 21.5655 220.206 20.0623C218.939 18.5466 217.02 17.63 214.363 17.63C211.112 17.63 208.703 19.0088 207.39 21.4707L207.388 21.4734C206.737 22.7226 206.415 24.1022 206.415 25.76V26.124C206.415 28.4939 207.048 30.4714 208.372 31.8574C209.698 33.2461 211.673 33.994 214.259 33.994C216.271 33.994 217.926 33.5409 219.197 32.6722C219.874 32.2092 220.434 31.6332 220.878 30.957C221.192 30.4773 220.81 29.89 220.236 29.89H216.955ZM214.389 20.994C215.516 20.994 216.335 21.3288 216.901 21.8978C217.407 22.4064 217.74 23.1313 217.887 24.052H210.552C210.768 23.1129 211.178 22.388 211.748 21.8827C212.392 21.3122 213.271 20.994 214.389 20.994Z" fill="#A2FFCB"/>
</svg>
